<?xml version="1.0" standalone="no"?>
<!DOCTYPE svg PUBLIC "-//W3C//DTD SVG 20010904//EN"
 "http://www.w3.org/TR/2001/REC-SVG-20010904/DTD/svg10.dtd">
<svg version="1.0" xmlns="http://www.w3.org/2000/svg"
 width="1280.000000pt" height="640.000000pt" viewBox="0 0 1280.000000 640.000000"
 preserveAspectRatio="xMidYMid meet">
<g transform="translate(0.000000,640.000000) scale(0.100000,-0.100000)"
fill="#000000" stroke="none">
<path d="M2830 6369 c-171 -21 -341 -80 -486 -170 -115 -70 -306 -259 -392
-385 -57 -85 -66 -93 -114 -110 -76 -27 -151 -103 -172 -173 -21 -72 -20 -131
3 -224 50 -192 192 -438 402 -693 97 -116 273 -208 494 -255 137 -29 352 -44
468 -33 53 5 97 9 97 8 0 -1 -133 -266 -297 -589 -163 -324 -317 -636 -343
-694 -74 -169 -103 -213 -173 -263 -30 -21 -28 -18 28 88 116 214 146 290 181
454 25 117 26 359 2 448 -70 252 -260 396 -538 409 -87 5 -128 1 -240 -21
-161 -32 -188 -44 -305 -127 -165 -117 -317 -289 -424 -482 -79 -144 -154
-365 -180 -537 -21 -131 -14 -121 -74 -114 -66 8 -201 -17 -311 -57 -234 -84
-428 -266 -451 -422 -12 -81 67 -249 164 -346 71 -72 134 -113 224 -147 95
-35 240 -110 262 -134 17 -19 16 -20 -29 -47 -130 -77 -196 -124 -221 -157
l-28 -37 19 -35 c25 -48 101 -123 141 -140 51 -22 182 -18 249 7 109 41 242
181 275 291 42 139 9 250 -145 473 -45 66 -52 81 -40 88 9 5 30 6 47 3 26 -5
39 -17 66 -64 76 -128 196 -267 292 -337 180 -133 394 -195 674 -195 192 0
559 45 635 77 19 8 85 30 145 49 488 155 527 170 591 226 22 19 91 72 154 118
184 133 314 243 486 412 88 87 168 158 177 158 16 0 25 -22 51 -127 22 -89 58
-154 111 -201 77 -67 158 -92 545 -167 161 -31 259 -63 316 -105 60 -43 177
-97 254 -116 75 -19 153 -14 228 14 48 19 50 19 75 0 14 -11 81 -87 149 -171
193 -240 291 -351 453 -512 205 -205 360 -336 550 -464 482 -325 880 -538
1260 -673 426 -151 781 -184 1119 -104 56 13 133 30 171 36 94 17 312 87 530
172 99 38 221 83 270 100 50 16 196 81 325 143 327 156 408 185 523 185 80 0
194 -44 485 -189 306 -151 380 -176 527 -176 121 0 173 16 292 86 80 48 222
190 281 282 161 248 186 589 66 896 -86 219 -291 379 -458 356 -110 -14 -196
-88 -267 -229 -39 -77 -41 -84 -36 -148 7 -80 35 -150 71 -173 51 -34 71 -12
122 140 17 49 38 91 56 109 26 25 33 28 70 22 23 -4 68 -21 100 -38 50 -27 64
-41 95 -95 56 -100 75 -174 76 -283 1 -157 -50 -294 -153 -418 -122 -147 -341
-203 -492 -127 -78 39 -149 96 -210 167 -89 105 -210 221 -272 263 -74 48
-182 90 -284 112 -59 12 -111 14 -222 10 -175 -6 -281 -31 -509 -116 -330
-123 -576 -164 -981 -165 -246 0 -360 9 -610 45 -135 20 -135 20 -317 110
-224 111 -454 261 -571 373 -47 44 -131 135 -187 201 -126 148 -416 517 -411
523 3 2 65 -25 138 -61 241 -117 827 -315 1039 -351 82 -14 408 -36 624 -42
225 -6 232 -6 331 20 249 64 476 164 644 283 114 82 261 226 355 348 37 50 71
93 75 98 4 4 23 1 43 -8 22 -9 67 -15 111 -15 82 0 66 -7 339 139 146 77 192
52 191 -104 -1 -100 -23 -189 -71 -284 -38 -74 -81 -120 -102 -107 -7 5 -11
44 -11 104 0 108 -9 131 -62 158 -63 33 -135 -8 -185 -103 -41 -77 -57 -150
-51 -234 12 -165 116 -265 302 -291 65 -10 80 -8 136 11 189 66 324 179 400
336 63 130 89 262 110 577 10 155 10 157 -14 223 -64 170 -146 285 -241 341
-63 36 -174 57 -265 49 -133 -11 -352 -61 -456 -103 -29 -12 -55 -18 -58 -15
-3 4 -6 36 -6 72 -1 295 -259 541 -724 688 l-78 25 -182 -20 c-99 -11 -204
-20 -233 -20 -181 -3 -461 -221 -598 -467 -45 -80 -54 -110 -65 -208 -8 -71
-6 -84 20 -163 87 -256 213 -398 445 -498 61 -26 121 -56 134 -65 23 -18 23
-18 -60 -37 -109 -25 -318 -24 -411 2 -263 73 -728 372 -1098 707 -74 67 -193
197 -187 204 2 2 85 32 184 67 100 36 215 79 257 96 l76 32 57 -20 c119 -41
188 -54 283 -54 113 -1 193 23 286 83 67 44 183 158 232 231 l32 46 87 7 c71
6 114 18 227 61 77 30 158 66 180 81 23 15 84 70 136 123 70 70 104 113 130
165 32 64 35 76 35 160 0 79 -3 95 -27 135 -61 105 -215 215 -324 232 -109 17
-250 -25 -283 -83 -33 -60 14 -106 141 -138 88 -22 112 -33 155 -74 39 -37 57
-86 48 -133 -8 -43 -65 -108 -119 -136 -52 -27 -172 -35 -236 -16 l-45 14 -1
81 c-1 45 -4 85 -7 90 -2 4 -10 26 -16 48 -97 322 -269 437 -631 422 l-135 -5
-300 -148 c-267 -131 -305 -153 -344 -196 -153 -170 -529 -323 -964 -393 -54
-9 -107 -13 -118 -10 -11 4 -68 53 -127 110 -59 58 -122 112 -139 122 -18 10
-33 21 -33 25 0 4 -39 39 -87 78 -95 77 -151 138 -332 360 -123 151 -451 587
-451 600 0 4 7 51 15 106 40 267 -1 391 -157 474 -35 19 -99 43 -143 55 -70
18 -96 20 -200 13 -66 -4 -139 -12 -163 -18 -42 -10 -44 -10 -87 28 -62 55
-140 94 -295 147 -120 41 -142 46 -196 41 -98 -8 -171 -41 -231 -104 l-52 -54
-136 46 c-172 58 -328 100 -475 126 -133 24 -377 34 -490 19z"/>
</g>
</svg>
